# xmcd
#
# Track frame offsets: 
#        150
#        16494
#        32546
#        48432
#        65068
#        82545
#        105597
#        125297
#        149239
#        169474
#        188304
#
# Disc length: 2919 seconds
#
# Revision: 0
# Processed by: cddbd v1.5.2PL0 Copyright (c) Steve Scherf et al.
# Submitted via: ExactAudioCopy v1.0b1
#
DISCID=8d0b650b
DTITLE=Kyle Henderson - Brand New Chance
DYEAR=2013
DGENRE=Blues Rock
TTITLE0=One Thing Everybody Wants
TTITLE1=Walkin' Shoes
TTITLE2=Brand New Chance
TTITLE3=Let That Music Grab Your Soul
TTITLE4=Better To Roll How You Roll
TTITLE5=Good People
TTITLE6=Lucky Man
TTITLE7=Watch Her Dance
TTITLE8=Perfect Day
TTITLE9=Aeroplane
TTITLE10=Takes A World To Make A Man
EXTD=
EXTT0=
EXTT1=
EXTT2=
EXTT3=
EXTT4=
EXTT5=
EXTT6=
EXTT7=
EXTT8=
EXTT9=
EXTT10=
PLAYORDER=
